<?xml version="1.0" encoding="UTF-8"?>
<svg width="512px" height="512px" viewBox="0 0 512 512" version="1.1" xmlns="http://www.w3.org/2000/svg" xmlns:xlink="http://www.w3.org/1999/xlink">
    <!-- Generator: Sketch 51.2 (57519) - http://www.bohemiancoding.com/sketch -->
    <title>all</title>
    <desc>Created with Sketch.</desc>
    <defs></defs>
    <g id="Page-1" stroke="none" stroke-width="1" fill="none" fill-rule="evenodd">
        <g id="all" fill="#71D086" fill-rule="nonzero">
            <path d="M64,425.219 L64,86.781 C-21.333,183.457 -21.333,328.543 64,425.219 Z" id="Shape"></path>
            <path d="M448,86.781 L448,425.214 C533.333,328.54 533.333,183.455 448,86.781 Z" id="Shape"></path>
            <path d="M420.571,0 L91.429,0 C86.382,0.005 82.291,4.095 82.286,9.143 L82.286,443.874 C84.149,445.589 86.002,447.315 87.898,448.991 C184.074,532.87 327.365,533.019 423.715,449.339 C425.88,447.422 427.832,445.668 429.715,443.935 L429.715,9.143 C429.709,4.095 425.619,0.005 420.571,0 Z M216.75,408.75 L161.893,463.607 C160.179,465.322 157.854,466.286 155.429,466.286 C153.004,466.286 150.679,465.322 148.965,463.607 L130.679,445.321 C127.147,441.744 127.166,435.987 130.72,432.433 C134.274,428.879 140.031,428.861 143.608,432.393 L155.43,444.214 L203.823,395.821 C207.4,392.289 213.157,392.308 216.711,395.862 C220.264,399.416 220.282,405.173 216.75,408.75 Z M216.75,326.464 L161.893,381.321 C160.179,383.036 157.854,384 155.429,384 C153.004,384 150.679,383.036 148.965,381.321 L130.679,363.035 C127.147,359.458 127.166,353.701 130.72,350.147 C134.274,346.593 140.031,346.575 143.608,350.107 L155.43,361.928 L203.823,313.535 C207.4,310.003 213.157,310.022 216.711,313.576 C220.264,317.131 220.282,322.888 216.75,326.464 Z M216.75,244.178 L161.893,299.035 C160.179,300.75 157.854,301.714 155.429,301.714 C153.004,301.714 150.679,300.75 148.965,299.035 L130.679,280.749 C128.345,278.444 127.425,275.066 128.267,271.897 C129.109,268.727 131.585,266.252 134.755,265.409 C137.925,264.567 141.303,265.487 143.607,267.821 L155.429,279.642 L203.822,231.249 C207.399,227.717 213.156,227.736 216.71,231.29 C220.264,234.845 220.282,240.602 216.75,244.178 Z M374.857,448 L265.143,448 C260.094,448 256,443.907 256,438.857 C256,433.808 260.093,429.714 265.143,429.714 L374.857,429.714 C379.906,429.714 384,433.807 384,438.857 C384,443.907 379.907,448 374.857,448 Z M374.857,365.714 L265.143,365.714 C260.094,365.714 256,361.621 256,356.571 C256,351.522 260.093,347.428 265.143,347.428 L374.857,347.428 C379.906,347.428 384,351.521 384,356.571 C384,361.621 379.907,365.714 374.857,365.714 Z M374.857,283.429 L265.143,283.429 C260.094,283.429 256,279.336 256,274.286 C256,269.237 260.093,265.143 265.143,265.143 L374.857,265.143 C379.906,265.143 384,269.236 384,274.286 C384,279.335 379.907,283.429 374.857,283.429 Z M216.75,159.178 L161.893,214.035 C160.179,215.75 157.854,216.714 155.429,216.714 C153.004,216.714 150.679,215.75 148.965,214.035 L130.679,195.749 C128.345,193.444 127.425,190.066 128.267,186.897 C129.109,183.727 131.585,181.252 134.755,180.409 C137.925,179.567 141.303,180.487 143.607,182.821 L155.429,194.642 L203.822,146.249 C207.399,142.717 213.156,142.736 216.71,146.29 C220.264,149.845 220.282,155.602 216.75,159.178 Z M374.857,198.429 L265.143,198.429 C260.094,198.429 256,194.336 256,189.286 C256,184.237 260.093,180.143 265.143,180.143 L374.857,180.143 C379.906,180.143 384,184.236 384,189.286 C384,194.335 379.907,198.429 374.857,198.429 Z M216.75,70.178 L161.893,125.035 C160.179,126.75 157.854,127.714 155.429,127.714 C153.004,127.714 150.679,126.75 148.965,125.035 L130.679,106.749 C128.345,104.444 127.425,101.066 128.267,97.897 C129.109,94.727 131.585,92.252 134.755,91.409 C137.925,90.567 141.303,91.487 143.607,93.821 L155.429,105.642 L203.822,57.249 C207.399,53.717 213.156,53.736 216.71,57.29 C220.264,60.845 220.282,66.602 216.75,70.178 Z M374.857,109.429 L265.143,109.429 C260.094,109.429 256,105.336 256,100.286 C256,95.237 260.093,91.143 265.143,91.143 L374.857,91.143 C379.906,91.143 384,95.236 384,100.286 C384,105.335 379.907,109.429 374.857,109.429 Z" id="Shape"></path>
        </g>
    </g>
</svg>