<?xml version="1.0" encoding="UTF-8"?>
<svg width="512px" height="512px" viewBox="0 0 512 512" version="1.1" xmlns="http://www.w3.org/2000/svg" xmlns:xlink="http://www.w3.org/1999/xlink">
    <!-- Generator: Sketch 51.2 (57519) - http://www.bohemiancoding.com/sketch -->
    <title>money</title>
    <desc>Created with Sketch.</desc>
    <defs></defs>
    <g id="Page-1" stroke="none" stroke-width="1" fill="none" fill-rule="evenodd">
        <g id="money" fill="#F6B4DA" fill-rule="nonzero">
            <path d="M271,328.946 C288.245,324.711 301,313.611 301,300.854 C301,288.097 288.245,276.997 271,272.762 L271,328.946 Z" id="Shape"></path>
            <path d="M256,91 C165.019,91 91,165.019 91,256 C91,346.981 165.019,421 256,421 C346.981,421 421,346.981 421,256 C421,165.019 346.981,91 256,91 Z M331,300.854 C331,329.834 305.191,354.066 271,359.64 L271,376 C271,384.291 264.291,391 256,391 C247.709,391 241,384.291 241,376 L241,359.64 C206.809,354.066 181,329.834 181,300.854 C181,292.563 187.709,285.854 196,285.854 C204.291,285.854 211,292.563 211,300.854 C211,313.611 223.755,324.711 241,328.946 L241,269.64 C206.809,264.066 181,239.834 181,210.854 C181,181.874 206.809,157.642 241,152.068 L241,135.854 C241,127.563 247.709,120.854 256,120.854 C264.291,120.854 271,127.563 271,135.854 L271,152.068 C305.191,157.642 331,181.874 331,210.854 C331,219.145 324.291,225.854 316,225.854 C307.709,225.854 301,219.145 301,210.854 C301,198.097 288.245,186.997 271,182.762 L271,242.068 C305.191,247.641 331,271.873 331,300.854 Z" id="Shape"></path>
            <path d="M241,182.761 C223.755,186.996 211,198.096 211,210.853 C211,223.61 223.755,234.71 241,238.945 L241,182.761 Z" id="Shape"></path>
            <path d="M256,0 C115.39,0 0,115.39 0,256 C0,396.61 115.39,512 256,512 C396.61,512 512,396.61 512,256 C512,115.39 396.61,0 256,0 Z M256,451 C148.48,451 61,363.52 61,256 C61,148.48 148.48,61 256,61 C363.52,61 451,148.48 451,256 C451,363.52 363.52,451 256,451 Z" id="Shape"></path>
        </g>
    </g>
</svg>