<?xml version="1.0" encoding="UTF-8"?>
<svg width="512px" height="512px" viewBox="0 0 512 512" version="1.1" xmlns="http://www.w3.org/2000/svg" xmlns:xlink="http://www.w3.org/1999/xlink">
    <!-- Generator: Sketch 51.2 (57519) - http://www.bohemiancoding.com/sketch -->
    <title>coin</title>
    <desc>Created with Sketch.</desc>
    <defs></defs>
    <g id="Page-1" stroke="none" stroke-width="1" fill="none" fill-rule="evenodd">
        <g id="coin" fill="#F6B4DA" fill-rule="nonzero">
            <path d="M288.134,158.533 L222.8,158.533 L222.8,257.066 L288.134,257.066 C315.3,257.066 337.401,234.965 337.401,207.799 C337.4,180.24 315.061,158.533 288.134,158.533 Z" id="Shape"></path>
            <path d="M256,0 C114.841,0 0,114.841 0,256 C0,397.159 114.841,512 256,512 C397.159,512 512,397.159 512,256 C512,114.841 397.159,0 256,0 Z M288.134,287.066 L222.8,287.066 L222.8,321.333 L288.134,321.333 C296.418,321.333 303.134,328.049 303.134,336.333 C303.134,344.617 296.418,351.333 288.134,351.333 L222.8,351.333 L222.8,384.533 C222.8,392.817 216.084,399.533 207.8,399.533 C199.516,399.533 192.8,392.817 192.8,384.533 L192.8,351.333 L175.667,351.333 C167.383,351.333 160.667,344.617 160.667,336.333 C160.667,328.049 167.383,321.333 175.667,321.333 L192.8,321.333 L192.8,287.066 L175.667,287.066 C167.383,287.066 160.667,280.35 160.667,272.066 C160.667,263.782 167.383,257.066 175.667,257.066 L192.8,257.066 L192.8,143.533 C192.8,135.249 199.516,128.533 207.8,128.533 L288.134,128.533 C330.919,128.533 367.401,163.012 367.401,207.8 C367.4,251.508 331.842,287.066 288.134,287.066 Z" id="Shape"></path>
        </g>
    </g>
</svg>