<?xml version="1.0" encoding="UTF-8"?>
<svg width="512px" height="512px" viewBox="0 0 512 512" version="1.1" xmlns="http://www.w3.org/2000/svg" xmlns:xlink="http://www.w3.org/1999/xlink">
    <!-- Generator: Sketch 51.3 (57544) - http://www.bohemiancoding.com/sketch -->
    <title>document</title>
    <desc>Created with Sketch.</desc>
    <defs></defs>
    <g id="Page-1" stroke="none" stroke-width="1" fill="none" fill-rule="evenodd">
        <g id="document" fill-rule="nonzero">
            <circle id="Oval" fill="#536C79" cx="256" cy="256" r="256"></circle>
            <path d="M204,84 L380,84 C384.4,84 388,87.6 388,92 L388,420 C388,424.4 384.4,428 380,428 L132,428 C127.6,428 124,424.4 124,420 L124,168 L204,84 Z" id="Shape" fill="#F5F5F5"></path>
            <g id="Group" transform="translate(124.000000, 84.000000)" fill="#E6E6E6">
                <path d="M72,84 C76.4,84 80,80.4 80,76 L80,0 L0,84 L72,84 Z" id="Shape"></path>
                <rect id="Rectangle-path" x="132" y="44" width="108" height="16"></rect>
                <rect id="Rectangle-path" x="100" y="76" width="140" height="16"></rect>
                <rect id="Rectangle-path" x="20" y="108" width="220" height="16"></rect>
                <rect id="Rectangle-path" x="20" y="144" width="220" height="16"></rect>
                <rect id="Rectangle-path" x="20" y="180" width="220" height="16"></rect>
                <rect id="Rectangle-path" x="20" y="216" width="220" height="16"></rect>
                <rect id="Rectangle-path" x="20" y="252" width="188" height="16"></rect>
            </g>
        </g>
    </g>
</svg>