<?xml version="1.0" encoding="UTF-8"?>
<svg width="512px" height="512px" viewBox="0 0 512 512" version="1.1" xmlns="http://www.w3.org/2000/svg" xmlns:xlink="http://www.w3.org/1999/xlink">
    <!-- Generator: Sketch 51.2 (57519) - http://www.bohemiancoding.com/sketch -->
    <title>task</title>
    <desc>Created with Sketch.</desc>
    <defs></defs>
    <g id="Page-1" stroke="none" stroke-width="1" fill="none" fill-rule="evenodd">
        <g id="task" fill-rule="nonzero">
            <circle id="Oval" fill="#92DDEA" cx="256" cy="256" r="256"></circle>
            <rect id="Rectangle-path" fill="#E4AB47" x="111" y="98" width="290" height="326"></rect>
            <rect id="Rectangle-path" fill="#D59134" x="255.57" y="98" width="145.43" height="326"></rect>
            <polygon id="Shape" fill="#FFFFFF" points="369.333 117 142.667 117 142.667 388.333 311 388.333 369.333 330"></polygon>
            <polygon id="Shape" fill="#E6E6E6" points="255.571 117 255.571 388.333 311 388.333 369.333 330 369.333 117"></polygon>
            <path d="M278.992,84.333 C278.993,84.222 279,84.112 279,84 C279,71.297 268.703,61 256,61 C243.297,61 233,71.297 233,84 C233,84.112 233.007,84.222 233.008,84.333 L194,84.333 L194,138.333 L318,138.333 L318,84.333 C318,84.333 278.992,84.333 278.992,84.333 Z" id="Shape" fill="#CED7DB"></path>
            <path d="M318,84.333 L278.992,84.333 C278.993,84.222 279,84.112 279,84 C279,71.297 268.703,61 256,61 C255.856,61 255.715,61.008 255.571,61.011 L255.571,138.334 L318,138.334 L318,84.333 Z" id="Shape" fill="#AFBDC4"></path>
            <path d="M284.969,363.508 C273.764,357.106 255.987,350.807 234.921,357.16 C214.034,363.459 205.735,361.972 202.496,359.362 C201.767,358.854 201.088,358.327 200.455,357.783 C198.642,358.615 196.79,359.295 194.923,359.788 C185.959,362.152 178.021,359.687 172.573,352.846 C171.826,351.908 171.162,350.91 170.576,349.863 C165.562,352.696 161.834,354.187 161.32,354.388 L157.679,345.075 L159.499,349.732 L157.673,345.077 C157.798,345.028 161.978,343.344 167.386,340.081 C165.234,325.686 171.255,307.553 177.86,296.947 C182.922,288.819 188.094,285.267 193.227,286.391 C197.917,287.418 200.81,292.01 201.825,300.039 C204.48,321.034 191.119,335.687 179.03,344.449 C179.427,345.249 179.882,345.975 180.395,346.618 C183.729,350.806 188.484,351.745 194.546,349.422 C192.043,342.563 193.77,334.948 197.591,329.173 C203.623,320.056 213.397,316.54 220.328,320.993 C223.596,323.094 225.076,326.795 224.388,331.146 C223.42,337.275 217.846,345.376 210.305,351.545 C213.204,351.719 219.592,351.338 232.032,347.587 C256.502,340.208 277.022,347.451 289.929,354.826 L284.969,363.508 Z M213.596,329.047 C211.376,329.047 208.166,331.314 205.931,334.69 C205.201,335.793 202.784,339.849 203.48,344.196 C210.365,338.747 214.624,331.763 214.58,329.227 C214.283,329.105 213.952,329.047 213.596,329.047 Z M190.842,296.667 C188.293,298.628 183.285,305.867 179.865,316.809 C178.008,322.749 177.049,328.375 176.98,333.252 C185.678,325.903 193.663,315.192 191.905,301.293 C191.598,298.86 191.167,297.447 190.842,296.667 Z" id="Shape" fill="#455A64"></path>
            <path d="M289.93,354.825 C281.43,349.968 269.628,345.171 255.572,344.567 L255.572,354.597 C267.559,355.204 277.662,359.332 284.969,363.508 L289.93,354.825 Z" id="Shape" fill="#37474F"></path>
            <polygon id="Shape" fill="#CED7DB" points="311 388.333 369.333 330.001 311 330"></polygon>
            <polygon id="Shape" fill="#42DB8F" points="293.667 239.142 263.775 209.251 277.918 195.109 293.667 210.858 338.901 165.623 353.044 179.765"></polygon>
            <rect id="Rectangle-path" fill="#788F9B" x="175" y="172" width="81.5" height="20"></rect>
            <rect id="Rectangle-path" fill="#607D8A" x="218.07" y="172" width="38.429" height="20"></rect>
            <rect id="Rectangle-path" fill="#788F9B" x="175" y="214.5" width="81.5" height="20"></rect>
            <rect id="Rectangle-path" fill="#607D8A" x="218.07" y="214.5" width="38.429" height="20"></rect>
        </g>
    </g>
</svg>